<svg width="525" height="311" viewBox="0 0 525 311" fill="none" xmlns="http://www.w3.org/2000/svg">
<g filter="url(#filter0_d)">
<path fill-rule="evenodd" clip-rule="evenodd" d="M332.389 298.853H7.65536C5.63706 298.853 4 297.352 4 295.502C4 293.651 5.63706 292.151 7.65536 292.151H332.389C334.407 292.151 336.044 293.651 336.044 295.502C336.044 297.352 334.407 298.853 332.389 298.853Z" fill="#FFCA00"/>
<path fill-rule="evenodd" clip-rule="evenodd" d="M516.435 298.853H355.379C353.363 298.853 351.728 297.352 351.728 295.502C351.728 293.651 353.363 292.151 355.379 292.151H516.435C518.452 292.151 520.086 293.651 520.086 295.502C520.086 297.352 518.452 298.853 516.435 298.853Z" fill="#FFCA00"/>
<path fill-rule="evenodd" clip-rule="evenodd" d="M371.138 0.592529H346.639C329.769 0.592529 316.094 12.5243 316.094 27.15C316.094 38.7796 324.742 48.7261 336.764 52.2857V59.6837L344.455 53.7096C345.176 53.7526 345.903 53.8592 346.639 53.8592H371.138C388.005 53.8592 401.682 41.8516 401.682 27.2258C401.682 12.6001 388.005 0.592529 371.138 0.592529Z" fill="white"/>
<path fill-rule="evenodd" clip-rule="evenodd" d="M310.907 104.764L320.23 90.7444L332.52 95.5355V129.286C332.52 131.926 330.942 134.381 328.343 135.78C322.426 138.969 310.907 135.301 310.907 129.286V104.764Z" fill="#FFCA00"/>
<path fill-rule="evenodd" clip-rule="evenodd" d="M256.693 286.2L252.983 293.018H276.326C275.61 290.47 272.861 288.827 269.977 289.224L267.178 289.609C265.227 289.609 263.904 287.822 264.654 286.2H256.693Z" fill="white"/>
<path fill-rule="evenodd" clip-rule="evenodd" d="M284.358 286.2L280.648 293.018H303.99C303.275 290.47 300.527 288.827 297.641 289.224L294.844 289.609C292.894 289.609 291.571 287.822 292.319 286.2H284.358Z" fill="white"/>
<path fill-rule="evenodd" clip-rule="evenodd" d="M341.25 95.9666C343.481 90.9455 340.86 83.3712 334.183 79.2317C327.743 75.2396 319.077 75.4106 312.849 79.653L311.822 80.3523C307.764 83.1157 305.26 87.2737 304.949 91.7654L304.563 106.242L297.939 109.384L303.544 126.351L309.147 120.105L318.097 110.412L325.433 112.325C330.003 113.741 335.031 111.675 336.715 107.694L336.74 107.631L338.144 104.313L341.25 95.9666Z" fill="#FBEFE1"/>
<path fill-rule="evenodd" clip-rule="evenodd" d="M343.018 91.0824L343.73 90.872C344.298 81.6654 336.375 73.6789 325.669 72.6692C313.567 71.5281 302.995 79.687 303.127 90.1096C303.17 93.5718 304.256 102.866 304.256 102.866L315.631 90.7468L316.886 91.1142C325.358 93.5944 334.554 93.5831 343.018 91.0824Z" fill="#FFCA00"/>
<path fill-rule="evenodd" clip-rule="evenodd" d="M257.292 286.957L254.309 264.517C253.096 256.24 253.412 240.431 255.246 232.243L257.36 222.796L253.392 199.391C252.32 193.068 253.367 186.606 256.406 180.795L259.962 171.805H300.388L300.039 173.524C298.462 181.294 298.688 191.45 300.706 199.141L306.818 219.396C307.621 222.055 307.657 224.845 306.925 227.519L292.818 286.957H284.879L284.282 265.059C283.749 250.707 290.343 224.513 290.343 224.513L278.024 197.72L265.231 286.957H257.292Z" fill="#FA7564"/>
<path fill-rule="evenodd" clip-rule="evenodd" d="M281.31 171.805H300.188L299.83 173.524C298.207 181.294 298.44 191.45 300.515 199.141L306.8 219.396C307.626 222.055 307.663 224.845 306.91 227.519L292.403 286.957H284.24L283.626 265.058C283.078 250.707 289.858 224.513 289.858 224.513L277.19 197.72L281.31 171.805Z" fill="#FD8778"/>
<path fill-rule="evenodd" clip-rule="evenodd" d="M338.875 122.318L325.829 146.355L322.795 122.422L312.693 115.892L308.696 120.384L297.506 109.85H281.088V109.684C265.813 125.387 258.516 145.508 259.096 166.195L259.035 171.53H287.508L308.457 186.957L316.216 180.902L302.81 163.32L308.696 149.648L314.513 143.141L323.092 164.451L337.215 161.85L348.946 124.538L338.875 122.318Z" fill="#1E389D"/>
<path fill-rule="evenodd" clip-rule="evenodd" d="M349.26 124.078C350.834 122.955 352.075 121.487 352.874 119.808L354 117.435C354.46 115.755 353.696 113.994 352.104 113.07L347.238 110.24L349.277 104.109C349.576 103.208 348.939 102.27 347.926 102.127C347.214 102.025 346.513 102.351 346.18 102.938L342.169 109.99L341.773 110.567C340.983 111.722 340.38 112.977 339.986 114.292C339.492 115.938 339.328 117.653 339.504 119.353L339.767 121.875L349.26 124.078Z" fill="#FBEFE1"/>
<path fill-rule="evenodd" clip-rule="evenodd" d="M479.815 282.297H453.943V238.929H478.338L486.121 176.91C487.713 167.377 482.517 157.911 472.993 153.059C464.544 148.755 453.807 148.755 445.382 153.096L431.495 160.082V221.264L412.056 238.929H444.491V282.297H418.647C415.106 282.297 412.238 284.726 412.238 287.819C412.238 290.913 415.106 293.598 418.647 293.598C422.063 293.598 424.848 290.558 425.038 288.493H442.839C443.03 290.558 445.814 293.775 449.23 293.775C452.648 293.775 455.432 290.558 455.621 288.493H473.424C473.615 290.558 476.398 293.558 479.815 293.558C483.355 293.558 486.225 291.022 486.225 287.928C486.225 284.834 483.355 282.297 479.815 282.297Z" fill="black"/>
<path fill-rule="evenodd" clip-rule="evenodd" d="M406.618 286.2L410.327 293.018H386.985C387.7 290.47 390.448 288.827 393.333 289.224L396.132 289.609C398.082 289.609 399.405 287.822 398.657 286.2H406.618Z" fill="white"/>
<path fill-rule="evenodd" clip-rule="evenodd" d="M385.004 286.2L388.714 293.018H365.372C366.088 290.47 368.835 288.827 371.721 289.224L374.519 289.609C376.468 289.609 377.791 287.822 377.043 286.2H385.004Z" fill="white"/>
<path fill-rule="evenodd" clip-rule="evenodd" d="M387.947 287.715L401.116 238.289L426.506 227.114H441.916L454.418 210.442L423.018 213.472L389.823 224.615C386.353 225.78 383.847 228.446 383.23 231.633L373.152 287.715H387.947Z" fill="#1E389D"/>
<path fill-rule="evenodd" clip-rule="evenodd" d="M432.413 213.702L405.897 225.802C402.745 227.242 400.642 229.962 400.305 233.039L394.766 287.715H408.598L420.731 233.932L454.539 227.115C463.544 227.115 470.844 220.781 470.844 212.968V210.442L432.413 213.702Z" fill="#212293"/>
<path fill-rule="evenodd" clip-rule="evenodd" d="M431.184 153.884H457.254C464.051 153.884 470.321 157.11 473.674 162.33L490.728 184.673V219.533H478.624V188.998L469.979 180.855V213.426H423.296L427.242 171.904L408.52 187.281C404.441 190.957 397.484 190.034 394.808 185.462L378.34 157.334L386.555 152.866L401.105 173.73L417.752 158.841C421.298 155.67 426.135 153.884 431.184 153.884Z" fill="#FA7564"/>
<path fill-rule="evenodd" clip-rule="evenodd" d="M424.395 125.52C424.294 120.043 429.696 113.628 437.512 111.743C445.05 109.925 453.022 112.765 457.134 118.734L457.812 119.719C460.492 123.608 461.183 128.347 459.711 132.726L454.55 146.441L454.192 154.573L445.321 157.411L439.313 154.573L439.654 145.813L432.809 145.795C428.013 145.734 424.162 142.212 424.162 137.895V137.827L424.159 132.012L424.395 125.52Z" fill="#FBEFE1"/>
<path fill-rule="evenodd" clip-rule="evenodd" d="M447.502 146.805V133.169H424.159L424.161 137.232V137.297C424.161 141.381 428.034 144.714 432.859 144.772L439.745 144.789L439.662 146.805H447.502Z" fill="black"/>
<path fill-rule="evenodd" clip-rule="evenodd" d="M449.442 122.554C449.442 122.554 427.683 122.849 422.43 113.068C422.43 113.068 435.459 105.222 449.349 108.011C461.184 110.594 467.802 121.626 463.446 131.581C461.999 134.888 459.509 140.438 456.73 144.532V132.327L449.62 131.159L448.489 133.844H445.152L449.442 122.554Z" fill="black"/>
<path fill-rule="evenodd" clip-rule="evenodd" d="M478.624 235.442C477.668 235.442 476.895 234.699 476.895 233.782V226.505L480.353 224.078V233.782C480.353 234.699 479.579 235.442 478.624 235.442Z" fill="#FBEFE1"/>
<path fill-rule="evenodd" clip-rule="evenodd" d="M482.137 236.199C481.219 236.199 480.472 235.51 480.462 234.654L480.354 224.078H483.703L483.812 234.624C483.82 235.491 483.069 236.199 482.137 236.199Z" fill="#FBEFE1"/>
<path fill-rule="evenodd" clip-rule="evenodd" d="M487.269 235.442C486.315 235.442 485.541 234.699 485.541 233.782V224.078H488.999V233.782C488.999 234.699 488.225 235.442 487.269 235.442Z" fill="#FBEFE1"/>
<path fill-rule="evenodd" clip-rule="evenodd" d="M490.421 230.896H489.306C488.658 230.896 488.134 230.389 488.134 229.763V224.078H491.592V229.763C491.592 230.389 491.069 230.896 490.421 230.896Z" fill="#FBEFE1"/>
<path fill-rule="evenodd" clip-rule="evenodd" d="M491.592 225.069V221.826L490.207 218.986L480.638 218.775L480.485 218.903C478.197 220.819 477.169 223.497 477.169 226.327L476.895 226.351L491.592 225.069Z" fill="#FBEFE1"/>
<path fill-rule="evenodd" clip-rule="evenodd" d="M516.664 205.896H453.692H291.023V215.207H301.653L293.323 302.109H297.35L319.045 215.207H328.337L320.966 292.798H324.47L343.615 215.207H428.6L450.293 302.109H454.322L445.993 215.207H453.692H487.811L506.956 292.798H510.46L503.089 215.207H516.664V205.896Z" fill="white"/>
<path fill-rule="evenodd" clip-rule="evenodd" d="M104.606 282.3H78.7345V238.942H111.201L91.744 221.28V160.113L77.8428 153.107C69.4091 148.767 58.804 148.744 50.3466 153.047C40.8131 157.898 35.5407 167.407 37.1337 176.937L44.8531 238.942H69.2731V282.3H43.3747C39.8314 282.3 36.9587 284.728 36.9587 287.821C36.9587 290.914 39.8314 293.598 43.3747 293.598C46.7951 293.598 49.5814 290.559 49.7719 288.494H67.5925C67.7829 290.559 70.5705 293.775 73.9896 293.775C77.4099 293.775 80.1975 290.559 80.3867 288.494H98.2085C98.3977 290.559 101.185 293.558 104.606 293.558C108.149 293.558 111.022 291.022 111.022 287.929C111.022 284.836 108.149 282.3 104.606 282.3Z" fill="black"/>
<path fill-rule="evenodd" clip-rule="evenodd" d="M116.641 286.2L112.931 293.018H136.273C135.558 290.47 132.809 288.827 129.924 289.224L127.126 289.609C125.175 289.609 123.852 287.822 124.602 286.2H116.641Z" fill="black"/>
<path fill-rule="evenodd" clip-rule="evenodd" d="M138.254 286.2L134.543 293.018H157.886C157.17 290.47 154.421 288.827 151.536 289.224L148.739 289.609C146.788 289.609 145.465 287.822 146.215 286.2H138.254Z" fill="black"/>
<path fill-rule="evenodd" clip-rule="evenodd" d="M135.311 287.715L122.142 238.289L96.7503 227.114H81.3407L68.8397 210.442L100.239 213.472L133.435 224.615C136.904 225.78 139.41 228.446 140.028 231.633L150.105 287.715H135.311Z" fill="#1E389D"/>
<path fill-rule="evenodd" clip-rule="evenodd" d="M89.9807 213.702L116.496 225.802C119.649 227.242 121.752 229.962 122.088 233.039L127.627 287.715H113.795L101.662 233.932L67.8528 227.115C58.8483 227.115 51.5493 220.781 51.5493 212.968V210.442L89.9807 213.702Z" fill="#212293"/>
<path fill-rule="evenodd" clip-rule="evenodd" d="M91.4106 153.872H65.0135C58.1313 153.872 51.7817 157.06 48.388 162.219L28.7628 187.671C25.8709 191.421 27.5624 196.511 32.3201 198.373L59.646 209.064L64.8759 198.731L46.8804 191.942C45.0893 191.265 44.495 189.327 45.667 187.975L52.1281 180.526V212.715H99.3983L95.4021 171.68L114.358 186.877C118.489 190.51 125.533 189.598 128.243 185.079L144.918 157.282L136.599 152.866L121.867 173.485L105.01 158.771C101.42 155.636 96.5219 153.872 91.4106 153.872Z" fill="#FA7564"/>
<path fill-rule="evenodd" clip-rule="evenodd" d="M97.1327 125.52C97.2328 120.043 91.8328 113.628 84.0156 111.743C76.4777 109.925 68.5069 112.765 64.394 118.734L63.7155 119.719C61.0365 123.608 60.3452 128.347 61.8174 132.726L66.9776 146.441L67.3349 154.573L76.2065 157.411L82.2141 154.573L81.8742 145.813L88.7197 145.795C93.5145 145.734 97.3667 142.212 97.3667 137.895V137.827L97.369 132.012L97.1327 125.52Z" fill="#FBEFE1"/>
<path fill-rule="evenodd" clip-rule="evenodd" d="M100.827 110.223C100.827 110.223 87.1345 104.653 73.5347 107.429C71.0608 107.977 68.8373 108.927 66.8842 110.15L64.0822 107.351V112.263C58.8873 117.01 56.9119 124.189 59.795 130.885C61.2119 134.176 64.0822 139.7 66.4338 143.775V131.628L73.3313 130.465L73.4748 121.902C73.4748 121.902 86.4431 122.517 94.5211 117.564L97.1821 122.356C97.1821 122.356 95.3889 113.224 100.827 110.223Z" fill="black"/>
<path fill-rule="evenodd" clip-rule="evenodd" d="M69.7043 194.533C69.7043 193.696 68.8561 193.017 67.8101 193.017H59.506L56.7364 196.048H67.8101C68.8561 196.048 69.7043 195.369 69.7043 194.533Z" fill="#FBEFE1"/>
<path fill-rule="evenodd" clip-rule="evenodd" d="M70.5688 198.368C70.5688 197.563 69.7816 196.909 68.8051 196.901L56.7364 196.805V199.74L68.7717 199.836C69.7604 199.843 70.5688 199.185 70.5688 198.368Z" fill="#FBEFE1"/>
<path fill-rule="evenodd" clip-rule="evenodd" d="M69.7043 202.108C69.7043 201.272 68.8561 200.593 67.8101 200.593H56.7364V203.624H67.8101C68.8561 203.624 69.7043 202.945 69.7043 202.108Z" fill="#FBEFE1"/>
<path fill-rule="evenodd" clip-rule="evenodd" d="M77.4849 207.9V206.923C77.4849 206.355 76.906 205.896 76.1923 205.896H69.7042V208.927H76.1923C76.906 208.927 77.4849 208.468 77.4849 207.9Z" fill="#FF63BE"/>
<path fill-rule="evenodd" clip-rule="evenodd" d="M58.7308 205.896H55.0305L51.7893 204.682L51.5493 196.297L51.6956 196.163C53.8818 194.158 56.9369 193.258 60.1676 193.258L60.1945 193.017L58.7308 205.896Z" fill="#FBEFE1"/>
<path fill-rule="evenodd" clip-rule="evenodd" d="M231.37 205.896H68.6998H5.72943V215.207H19.3045L11.9328 292.798H15.4367L34.5808 215.207H68.6998H76.4011L68.0713 302.109H72.0998L93.7932 215.207H178.78L197.924 292.798H201.427L194.056 215.207H203.348L225.042 302.109H229.07L220.74 215.207H231.37V205.896Z" fill="white"/>
<path fill-rule="evenodd" clip-rule="evenodd" d="M122.07 194.533H212.255C215.371 194.533 218.053 192.616 218.67 189.95L229.51 143.042C230.327 139.504 227.23 136.199 223.095 136.199H132.91C129.795 136.199 127.111 138.116 126.495 140.782L115.656 187.69C114.838 191.228 117.935 194.533 122.07 194.533Z" fill="white"/>
<path fill-rule="evenodd" clip-rule="evenodd" d="M188 170.29H160.49L171.747 196.002C172.95 198.748 170.664 201.707 167.341 201.707H150.105V205.896H189.272C196.435 205.896 201.323 199.469 198.635 193.583L188 170.29Z" fill="#B3D2EC"/>
<path fill-rule="evenodd" clip-rule="evenodd" d="M418.242 32.4108H389.444C370.897 32.4108 355.862 45.2227 355.862 61.3197V61.236C355.862 77.334 370.897 90.2988 389.444 90.2988H418.242C418.873 90.2988 419.499 90.2461 420.122 90.2161L428.527 96.805V88.831C442.041 85.06 451.824 74.0644 451.824 61.0819V61.3197C451.824 45.2227 436.788 32.4108 418.242 32.4108Z" fill="#FFCA00"/>
<path fill-rule="evenodd" clip-rule="evenodd" d="M399.459 194.533H309.273C306.159 194.533 303.475 192.616 302.859 189.95L292.018 143.042C291.202 139.504 294.299 136.199 298.432 136.199H388.62C391.733 136.199 394.417 138.116 395.033 140.782L405.873 187.69C406.691 191.228 403.593 194.533 399.459 194.533Z" fill="white"/>
<path fill-rule="evenodd" clip-rule="evenodd" d="M334.263 170.29H361.46L350.331 196.002C349.142 198.748 351.402 201.707 354.687 201.707H370.559V205.896H333.006C325.924 205.896 321.093 199.469 323.749 193.583L334.263 170.29Z" fill="#B3D2EC"/>
</g>
<defs>
<filter id="filter0_d" x="0" y="0.592529" width="524.086" height="309.516" filterUnits="userSpaceOnUse" color-interpolation-filters="sRGB">
<feFlood flood-opacity="0" result="BackgroundImageFix"/>
<feColorMatrix in="SourceAlpha" type="matrix" values="0 0 0 0 0 0 0 0 0 0 0 0 0 0 0 0 0 0 127 0"/>
<feOffset dy="4"/>
<feGaussianBlur stdDeviation="2"/>
<feColorMatrix type="matrix" values="0 0 0 0 0 0 0 0 0 0 0 0 0 0 0 0 0 0 0.25 0"/>
<feBlend mode="normal" in2="BackgroundImageFix" result="effect1_dropShadow"/>
<feBlend mode="normal" in="SourceGraphic" in2="effect1_dropShadow" result="shape"/>
</filter>
</defs>
</svg>
